# This file uses centimeters as units for non-parametric coordinates.

mtllib Match.mtl
g default
v -6.268384 -9.480862 2.736396
v 6.268384 -9.480862 2.736396
v -6.268384 -9.480862 -2.736396
v 6.268384 -9.480862 -2.736396
v -6.268384 8.112802 2.736396
v -5.928607 -7.066568 2.322230
v 5.928607 -7.066568 2.322230
v 6.268384 8.112802 2.736396
v -5.928607 -7.066568 -2.322230
v -6.268384 8.112802 -2.736396
v 5.928607 -7.066568 -2.322230
v 6.268384 8.112802 -2.736396
v -6.181089 12.623212 -0.366863
v -6.510494 12.547012 -0.562067
v -6.885079 12.460362 -0.494274
v -7.129572 12.403805 -0.195204
v -7.129572 12.403805 0.195204
v -6.885079 12.460362 0.494273
v -6.510494 12.547012 0.562067
v -6.181089 12.623212 0.366863
v -6.050998 12.653305 0.000000
v -6.236554 13.666530 -0.518823
v -6.702402 13.558768 -0.794883
v -7.232145 13.436225 -0.699008
v -7.577910 13.356241 -0.276060
v -7.577910 13.356241 0.276060
v -7.232145 13.436225 0.699008
v -6.702402 13.558768 0.794883
v -6.236554 13.666530 0.518823
v -6.052576 13.709088 0.000000
v -6.644897 14.628219 -0.366863
v -6.974301 14.552019 -0.562067
v -7.348886 14.465368 -0.494274
v -7.593379 14.408812 -0.195204
v -7.593379 14.408812 0.195204
v -7.348886 14.465368 0.494273
v -6.974301 14.552019 0.562067
v -6.644897 14.628219 0.366863
v -6.514805 14.658312 0.000000
v -6.510994 12.109426 0.000000
v -7.166917 14.944933 0.000000
v -2.045643 -6.291113 -0.352439
v -2.442135 -6.382832 -0.352439
v -2.640381 -6.428691 -0.000000
v -2.442135 -6.382832 0.352439
v -2.045643 -6.291113 0.352439
v -1.847397 -6.245254 0.000000
v -6.640709 13.573040 -0.352439
v -7.037201 13.481321 -0.352439
v -7.235447 13.435463 -0.000000
v -7.037201 13.481321 0.352439
v -6.640710 13.573040 0.352439
v -6.442464 13.618898 0.000000
v -2.243889 -6.336972 0.000000
v -6.838955 13.527181 0.000000
vt 0.625000 0.750000
vt 0.375000 1.000000
vt 0.625000 1.000000
vt 0.375000 0.250000
vt 0.375000 0.518037
vt 0.110681 0.998008
vt 0.998008 0.926147
vt 0.889319 0.998008
vt 0.625000 0.250000
vt 0.402281 0.437506
vt 0.001992 0.001992
vt 0.998008 0.001992
vt 0.001992 0.926147
vt 0.402281 0.312494
vt 0.597719 0.312494
vt 0.597719 0.437506
vt 0.625000 0.518037
vt 0.375000 0.750000
vt 1.371760 0.083440
vt 1.371760 0.958442
vt -0.202547 0.958442
vt -0.202547 0.083440
vt 1.371760 0.958442
vt 1.371760 0.083440
vt -0.202547 0.083440
vt -0.202547 0.958442
vt 0.000000 0.250000
vt 0.111111 0.250000
vt 0.111111 0.500000
vt 0.000000 0.500000
vt 0.222222 0.250000
vt 0.222222 0.500000
vt 0.333333 0.250000
vt 0.333333 0.500000
vt 0.444444 0.250000
vt 0.444444 0.500000
vt 0.555556 0.250000
vt 0.555556 0.500000
vt 0.666667 0.250000
vt 0.666667 0.500000
vt 0.777778 0.250000
vt 0.777778 0.500000
vt 0.888889 0.250000
vt 0.888889 0.500000
vt 1.000000 0.250000
vt 1.000000 0.500000
vt 0.111111 0.750000
vt 0.000000 0.750000
vt 0.222222 0.750000
vt 0.333333 0.750000
vt 0.444444 0.750000
vt 0.555556 0.750000
vt 0.666667 0.750000
vt 0.777778 0.750000
vt 0.888889 0.750000
vt 1.000000 0.750000
vt 0.055556 0.000000
vt 0.166667 0.000000
vt 0.277778 0.000000
vt 0.388889 0.000000
vt 0.500000 0.000000
vt 0.611111 0.000000
vt 0.722222 0.000000
vt 0.833333 0.000000
vt 0.944444 0.000000
vt 0.055556 1.000000
vt 0.166667 1.000000
vt 0.277778 1.000000
vt 0.388889 1.000000
vt 0.500000 1.000000
vt 0.611111 1.000000
vt 0.722222 1.000000
vt 0.833333 1.000000
vt 0.944444 1.000000
vt 0.375000 0.312500
vt 0.416667 0.312500
vt 0.416667 0.688440
vt 0.375000 0.688440
vt 0.458333 0.312500
vt 0.458333 0.688440
vt 0.500000 0.312500
vt 0.500000 0.688440
vt 0.541667 0.312500
vt 0.541667 0.688440
vt 0.583333 0.312500
vt 0.583333 0.688440
vt 0.625000 0.312500
vt 0.625000 0.688440
vt 0.421875 0.020934
vt 0.578125 0.020934
vt 0.500000 0.150000
vt 0.343750 0.156250
vt 0.421875 0.291566
vt 0.578125 0.291566
vt 0.656250 0.156250
vt 0.578125 0.979066
vt 0.421875 0.979066
vt 0.500000 0.837500
vt 0.343750 0.843750
vt 0.421875 0.708434
vt 0.578125 0.708434
vt 0.656250 0.843750
vn 0.000000 -1.000000 0.000000
vn 0.000000 -1.000000 0.000000
vn 0.000000 -1.000000 0.000000
vn 0.000000 -1.000000 0.000000
vn 0.999750 0.022379 0.000000
vn 0.999750 0.022379 0.000000
vn 0.999750 0.022379 0.000000
vn 0.999750 0.022379 0.000000
vn 0.000000 0.027275 -0.999628
vn 0.000000 0.027275 -0.999628
vn 0.000000 0.027275 -0.999628
vn 0.000000 0.027275 -0.999628
vn -0.999750 0.022378 0.000000
vn -0.999750 0.022378 0.000000
vn -0.999750 0.022378 0.000000
vn -0.999750 0.022378 0.000000
vn 0.000000 0.027275 0.999628
vn 0.000000 0.027275 0.999628
vn 0.000000 0.027275 0.999628
vn 0.000000 0.027275 0.999628
vn 0.000000 0.000000 1.000000
vn 0.000000 0.000000 1.000000
vn 0.000000 0.000000 1.000000
vn 0.000000 0.000000 1.000000
vn 0.000000 1.000000 0.000000
vn 0.000000 1.000000 0.000000
vn 0.000000 1.000000 0.000000
vn 0.000000 1.000000 0.000000
vn 0.000000 0.000000 -1.000000
vn 0.000000 0.000000 -1.000000
vn 0.000000 0.000000 -1.000000
vn 0.000000 0.000000 -1.000000
vn 1.000000 0.000000 0.000000
vn 1.000000 0.000000 0.000000
vn 1.000000 0.000000 0.000000
vn 1.000000 0.000000 0.000000
vn -1.000000 0.000000 0.000000
vn -1.000000 0.000000 0.000000
vn -1.000000 0.000000 0.000000
vn -1.000000 0.000000 0.000000
vn 0.523727 -0.095455 -0.846521
vn 0.523727 -0.095455 -0.846521
vn 0.523727 -0.095455 -0.846521
vn 0.523727 -0.095455 -0.846521
vn -0.117809 -0.243857 -0.962629
vn -0.117809 -0.243857 -0.962629
vn -0.117809 -0.243857 -0.962629
vn -0.117809 -0.243857 -0.962629
vn -0.681967 -0.374361 -0.628311
vn -0.681967 -0.374361 -0.628311
vn -0.681967 -0.374361 -0.628311
vn -0.681967 -0.374361 -0.628311
vn -0.904770 -0.425901 0.000000
vn -0.904770 -0.425901 0.000000
vn -0.904770 -0.425901 0.000000
vn -0.904770 -0.425901 0.000000
vn -0.681967 -0.374361 0.628311
vn -0.681967 -0.374361 0.628311
vn -0.681967 -0.374361 0.628311
vn -0.681967 -0.374361 0.628311
vn -0.117810 -0.243857 0.962629
vn -0.117810 -0.243857 0.962629
vn -0.117810 -0.243857 0.962629
vn -0.117810 -0.243857 0.962629
vn 0.523726 -0.095455 0.846522
vn 0.523726 -0.095455 0.846522
vn 0.523726 -0.095455 0.846522
vn 0.523726 -0.095455 0.846522
vn 0.942460 0.001409 0.334317
vn 0.942460 0.001409 0.334317
vn 0.942460 0.001409 0.334317
vn 0.942460 0.001409 0.334317
vn 0.942460 0.001409 -0.334317
vn 0.942460 0.001409 -0.334317
vn 0.942460 0.001409 -0.334317
vn 0.942460 0.001409 -0.334317
vn 0.428605 0.315752 -0.846522
vn 0.428605 0.315752 -0.846521
vn 0.428605 0.315752 -0.846522
vn 0.428605 0.315752 -0.846522
vn -0.212932 0.167349 -0.962629
vn -0.212932 0.167349 -0.962629
vn -0.212932 0.167349 -0.962629
vn -0.212932 0.167349 -0.962629
vn -0.777089 0.036846 -0.628312
vn -0.777089 0.036846 -0.628312
vn -0.777089 0.036846 -0.628312
vn -0.777089 0.036846 -0.628312
vn -0.999892 -0.014694 0.000000
vn -0.999892 -0.014694 0.000000
vn -0.999892 -0.014694 0.000000
vn -0.999892 -0.014694 0.000000
vn -0.777089 0.036846 0.628312
vn -0.777089 0.036846 0.628312
vn -0.777089 0.036846 0.628312
vn -0.777089 0.036846 0.628312
vn -0.212932 0.167349 0.962629
vn -0.212932 0.167349 0.962629
vn -0.212932 0.167349 0.962629
vn -0.212932 0.167349 0.962629
vn 0.428605 0.315752 0.846522
vn 0.428605 0.315752 0.846522
vn 0.428605 0.315752 0.846522
vn 0.428605 0.315752 0.846522
vn 0.847337 0.412615 0.334319
vn 0.847337 0.412615 0.334319
vn 0.847337 0.412615 0.334319
vn 0.847337 0.412615 0.334319
vn 0.847337 0.412615 -0.334318
vn 0.847337 0.412615 -0.334318
vn 0.847337 0.412615 -0.334318
vn 0.847337 0.412615 -0.334318
vn 0.479521 -0.692636 -0.538809
vn 0.479521 -0.692636 -0.538809
vn 0.479521 -0.692636 -0.538809
vn 0.071182 -0.787095 -0.612712
vn 0.071182 -0.787095 -0.612712
vn 0.071182 -0.787095 -0.612712
vn -0.287901 -0.870158 -0.399922
vn -0.287901 -0.870158 -0.399922
vn -0.287901 -0.870158 -0.399922
vn -0.429716 -0.902964 0.000000
vn -0.429716 -0.902964 0.000000
vn -0.429716 -0.902964 0.000000
vn -0.287901 -0.870158 0.399922
vn -0.287901 -0.870158 0.399922
vn -0.287901 -0.870158 0.399922
vn 0.071182 -0.787094 0.612712
vn 0.071182 -0.787094 0.612712
vn 0.071182 -0.787094 0.612712
vn 0.479521 -0.692637 0.538808
vn 0.479521 -0.692637 0.538808
vn 0.479521 -0.692637 0.538808
vn 0.746044 -0.630981 0.212793
vn 0.746044 -0.630981 0.212793
vn 0.746044 -0.630981 0.212793
vn 0.746044 -0.630981 -0.212793
vn 0.746044 -0.630981 -0.212793
vn 0.746044 -0.630981 -0.212793
vn 0.126637 0.832856 -0.538808
vn 0.126637 0.832856 -0.538808
vn 0.126637 0.832856 -0.538808
vn -0.281700 0.738395 -0.612713
vn -0.281700 0.738395 -0.612713
vn -0.281700 0.738395 -0.612713
vn -0.640785 0.655330 -0.399922
vn -0.640785 0.655330 -0.399922
vn -0.640785 0.655330 -0.399922
vn -0.782599 0.622526 0.000000
vn -0.782599 0.622526 0.000000
vn -0.782599 0.622526 0.000000
vn -0.640784 0.655330 0.399923
vn -0.640784 0.655330 0.399923
vn -0.640784 0.655330 0.399923
vn -0.281700 0.738395 0.612713
vn -0.281700 0.738395 0.612713
vn -0.281700 0.738395 0.612713
vn 0.126637 0.832855 0.538810
vn 0.126637 0.832855 0.538810
vn 0.126637 0.832855 0.538810
vn 0.393161 0.894507 0.212797
vn 0.393161 0.894507 0.212797
vn 0.393161 0.894507 0.212797
vn 0.393160 0.894506 -0.212800
vn 0.393160 0.894506 -0.212800
vn 0.393160 0.894506 -0.212800
vn 0.000000 0.000000 -1.000000
vn 0.000000 0.000000 -1.000000
vn 0.000000 0.000000 -1.000000
vn 0.000000 0.000000 -1.000000
vn -0.843745 -0.195179 -0.500000
vn -0.843745 -0.195179 -0.500000
vn -0.843745 -0.195179 -0.500000
vn -0.843745 -0.195179 -0.500000
vn -0.843745 -0.195179 0.500000
vn -0.843745 -0.195179 0.500000
vn -0.843745 -0.195179 0.500000
vn -0.843745 -0.195179 0.500000
vn -0.000000 -0.000000 1.000000
vn -0.000000 -0.000000 1.000000
vn -0.000000 -0.000000 1.000000
vn -0.000000 -0.000000 1.000000
vn 0.843745 0.195179 0.500000
vn 0.843745 0.195179 0.500000
vn 0.843745 0.195179 0.500000
vn 0.843745 0.195179 0.500000
vn 0.843745 0.195179 -0.500000
vn 0.843745 0.195179 -0.500000
vn 0.843745 0.195179 -0.500000
vn 0.843745 0.195179 -0.500000
vn 0.225374 -0.974272 0.000000
vn 0.225374 -0.974272 -0.000001
vn 0.225374 -0.974272 0.000000
vn 0.225374 -0.974272 0.000001
vn 0.225374 -0.974272 0.000002
vn 0.225374 -0.974272 0.000001
vn 0.225374 -0.974272 -0.000001
vn -0.225374 0.974272 0.000002
vn -0.225373 0.974273 -0.000000
vn -0.225373 0.974273 0.000000
vn -0.225372 0.974273 -0.000002
vn -0.225373 0.974273 -0.000003
vn -0.225373 0.974273 0.000000
vn -0.225372 0.974273 0.000003
s off
g MAtch2
usemtl initialShadingGroup
f 3/18/1 4/1/2 2/3/3 1/2/4
f 5/4/5 6/14/6 9/10/7 10/5/8
usemtl lambert2SG
f 6/6/9 5/13/10 8/7/11 7/8/12
usemtl initialShadingGroup
f 7/15/13 8/9/14 12/17/15 11/16/16
f 10/5/17 9/10/18 11/16/19 12/17/20
usemtl lambert2SG
f 1/11/21 2/12/22 8/7/23 5/13/24
usemtl initialShadingGroup
f 6/14/25 7/15/26 11/16/27 9/10/28
f 10/5/29 12/17/30 4/1/31 3/18/32
usemtl lambert3SG
f 2/19/33 4/20/34 12/21/35 8/22/36
f 3/23/37 1/24/38 5/25/39 10/26/40
usemtl initialShadingGroup
f 13/27/41 14/28/42 23/29/43 22/30/44
f 14/28/45 15/31/46 24/32/47 23/29/48
f 15/31/49 16/33/50 25/34/51 24/32/52
f 16/33/53 17/35/54 26/36/55 25/34/56
f 17/35/57 18/37/58 27/38/59 26/36/60
f 18/37/61 19/39/62 28/40/63 27/38/64
f 19/39/65 20/41/66 29/42/67 28/40/68
f 20/41/69 21/43/70 30/44/71 29/42/72
f 21/43/73 13/45/74 22/46/75 30/44/76
f 22/30/77 23/29/78 32/47/79 31/48/80
f 23/29/81 24/32/82 33/49/83 32/47/84
f 24/32/85 25/34/86 34/50/87 33/49/88
f 25/34/89 26/36/90 35/51/91 34/50/92
f 26/36/93 27/38/94 36/52/95 35/51/96
f 27/38/97 28/40/98 37/53/99 36/52/100
f 28/40/101 29/42/102 38/54/103 37/53/104
f 29/42/105 30/44/106 39/55/107 38/54/108
f 30/44/109 22/46/110 31/56/111 39/55/112
f 14/28/113 13/27/114 40/57/115
f 15/31/116 14/28/117 40/58/118
f 16/33/119 15/31/120 40/59/121
f 17/35/122 16/33/123 40/60/124
f 18/37/125 17/35/126 40/61/127
f 19/39/128 18/37/129 40/62/130
f 20/41/131 19/39/132 40/63/133
f 21/43/134 20/41/135 40/64/136
f 13/45/137 21/43/138 40/65/139
f 31/48/140 32/47/141 41/66/142
f 32/47/143 33/49/144 41/67/145
f 33/49/146 34/50/147 41/68/148
f 34/50/149 35/51/150 41/69/151
f 35/51/152 36/52/153 41/70/154
f 36/52/155 37/53/156 41/71/157
f 37/53/158 38/54/159 41/72/160
f 38/54/161 39/55/162 41/73/163
f 39/55/164 31/56/165 41/74/166
usemtl lambert4SG
f 42/75/167 43/76/168 49/77/169 48/78/170
f 43/76/171 44/79/172 50/80/173 49/77/174
f 44/79/175 45/81/176 51/82/177 50/80/178
f 45/81/179 46/83/180 52/84/181 51/82/182
f 46/83/183 47/85/184 53/86/185 52/84/186
f 47/85/187 42/87/188 48/88/189 53/86/190
s 1
f 43/89/191 42/90/192 54/91/193
f 44/92/194 43/89/191 54/91/193
f 45/93/195 44/92/194 54/91/193
f 46/94/196 45/93/195 54/91/193
f 47/95/197 46/94/196 54/91/193
f 42/90/192 47/95/197 54/91/193
s 2
f 48/96/198 49/97/199 55/98/200
f 49/97/199 50/99/201 55/98/200
f 50/99/201 51/100/202 55/98/200
f 51/100/202 52/101/203 55/98/200
f 52/101/203 53/102/204 55/98/200
f 53/102/204 48/96/198 55/98/200
