# This file uses centimeters as units for non-parametric coordinates.

mtllib SingleMatch.mtl
g default
v 0.298978 14.128729 -0.265661
v 0.054143 14.128729 -0.407016
v -0.224272 14.128729 -0.357924
v -0.405995 14.128729 -0.141355
v -0.405995 14.128729 0.141355
v -0.224272 14.128729 0.357924
v 0.054143 14.128729 0.407016
v 0.298978 14.128729 0.265661
v 0.395670 14.128729 0.000000
v 0.430119 14.873853 -0.375701
v 0.083871 14.873853 -0.575608
v -0.309868 14.873853 -0.506181
v -0.566863 14.873853 -0.199906
v -0.566863 14.873853 0.199906
v -0.309868 14.873853 0.506181
v 0.083870 14.873853 0.575608
v 0.430119 14.873853 0.375701
v 0.566863 14.873853 0.000000
v 0.298978 15.618977 -0.265661
v 0.054143 15.618977 -0.407016
v -0.224272 15.618977 -0.357924
v -0.405995 15.618977 -0.141355
v -0.405995 15.618977 0.141355
v -0.224272 15.618977 0.357924
v 0.054143 15.618977 0.407016
v 0.298978 15.618977 0.265661
v 0.395670 15.618977 0.000000
v -0.017625 13.820088 0.000000
v -0.017625 15.927618 0.000000
v 0.129725 0.109552 -0.255216
v -0.164973 0.109552 -0.255216
v -0.312322 0.109552 -0.000000
v -0.164973 0.109552 0.255216
v 0.129724 0.109552 0.255216
v 0.277073 0.109552 0.000000
v 0.129725 14.873854 -0.255216
v -0.164973 14.873854 -0.255216
v -0.312322 14.873854 -0.000000
v -0.164973 14.873854 0.255216
v 0.129724 14.873854 0.255216
v 0.277073 14.873854 0.000000
v -0.017625 0.109552 0.000000
v -0.017625 14.873854 0.000000
vt 0.000000 0.250000
vt 0.111111 0.250000
vt 0.222222 0.250000
vt 0.333333 0.250000
vt 0.444444 0.250000
vt 0.555556 0.250000
vt 0.666667 0.250000
vt 0.777778 0.250000
vt 0.888889 0.250000
vt 1.000000 0.250000
vt 0.000000 0.500000
vt 0.111111 0.500000
vt 0.222222 0.500000
vt 0.333333 0.500000
vt 0.444444 0.500000
vt 0.555556 0.500000
vt 0.666667 0.500000
vt 0.777778 0.500000
vt 0.888889 0.500000
vt 1.000000 0.500000
vt 0.000000 0.750000
vt 0.111111 0.750000
vt 0.222222 0.750000
vt 0.333333 0.750000
vt 0.444444 0.750000
vt 0.555556 0.750000
vt 0.666667 0.750000
vt 0.777778 0.750000
vt 0.888889 0.750000
vt 1.000000 0.750000
vt 0.055556 0.000000
vt 0.166667 0.000000
vt 0.277778 0.000000
vt 0.388889 0.000000
vt 0.500000 0.000000
vt 0.611111 0.000000
vt 0.722222 0.000000
vt 0.833333 0.000000
vt 0.944444 0.000000
vt 0.055556 1.000000
vt 0.166667 1.000000
vt 0.277778 1.000000
vt 0.388889 1.000000
vt 0.500000 1.000000
vt 0.611111 1.000000
vt 0.722222 1.000000
vt 0.833333 1.000000
vt 0.944444 1.000000
vt 0.375000 0.312500
vt 0.416667 0.312500
vt 0.416667 0.688440
vt 0.375000 0.688440
vt 0.458333 0.312500
vt 0.458333 0.688440
vt 0.500000 0.312500
vt 0.500000 0.688440
vt 0.541667 0.312500
vt 0.541667 0.688440
vt 0.583333 0.312500
vt 0.583333 0.688440
vt 0.625000 0.312500
vt 0.625000 0.688440
vt 0.421875 0.020934
vt 0.578125 0.020934
vt 0.500000 0.150000
vt 0.343750 0.156250
vt 0.421875 0.291566
vt 0.578125 0.291566
vt 0.656250 0.156250
vt 0.578125 0.979066
vt 0.421875 0.979066
vt 0.500000 0.837500
vt 0.343750 0.843750
vt 0.421875 0.708434
vt 0.578125 0.708434
vt 0.656250 0.843750
vn 0.488740 -0.211033 -0.846521
vn 0.488740 -0.211033 -0.846521
vn 0.488740 -0.211033 -0.846521
vn 0.488740 -0.211033 -0.846521
vn -0.169737 -0.211032 -0.962629
vn -0.169737 -0.211032 -0.962629
vn -0.169737 -0.211032 -0.962629
vn -0.169737 -0.211032 -0.962629
vn -0.748792 -0.211033 -0.628312
vn -0.748792 -0.211033 -0.628312
vn -0.748792 -0.211033 -0.628312
vn -0.748792 -0.211033 -0.628312
vn -0.977479 -0.211033 0.000000
vn -0.977479 -0.211033 0.000000
vn -0.977479 -0.211033 0.000000
vn -0.977479 -0.211033 0.000000
vn -0.748792 -0.211033 0.628312
vn -0.748792 -0.211033 0.628312
vn -0.748792 -0.211033 0.628312
vn -0.748792 -0.211033 0.628312
vn -0.169738 -0.211032 0.962629
vn -0.169738 -0.211032 0.962629
vn -0.169738 -0.211032 0.962629
vn -0.169738 -0.211032 0.962629
vn 0.488740 -0.211032 0.846521
vn 0.488740 -0.211032 0.846521
vn 0.488740 -0.211032 0.846521
vn 0.488740 -0.211032 0.846521
vn 0.918530 -0.211032 0.334318
vn 0.918530 -0.211032 0.334318
vn 0.918530 -0.211032 0.334318
vn 0.918530 -0.211032 0.334318
vn 0.918530 -0.211032 -0.334317
vn 0.918530 -0.211032 -0.334317
vn 0.918530 -0.211032 -0.334317
vn 0.918530 -0.211032 -0.334317
vn 0.488740 0.211033 -0.846522
vn 0.488740 0.211033 -0.846522
vn 0.488740 0.211033 -0.846522
vn 0.488740 0.211033 -0.846522
vn -0.169737 0.211032 -0.962629
vn -0.169737 0.211032 -0.962629
vn -0.169737 0.211032 -0.962629
vn -0.169737 0.211032 -0.962629
vn -0.748792 0.211033 -0.628312
vn -0.748792 0.211033 -0.628312
vn -0.748792 0.211033 -0.628312
vn -0.748792 0.211033 -0.628312
vn -0.977479 0.211033 0.000000
vn -0.977479 0.211033 0.000000
vn -0.977479 0.211033 0.000000
vn -0.977479 0.211033 0.000000
vn -0.748792 0.211032 0.628312
vn -0.748792 0.211032 0.628312
vn -0.748792 0.211032 0.628312
vn -0.748792 0.211032 0.628312
vn -0.169738 0.211032 0.962629
vn -0.169738 0.211032 0.962629
vn -0.169738 0.211032 0.962629
vn -0.169738 0.211032 0.962629
vn 0.488740 0.211032 0.846522
vn 0.488740 0.211032 0.846522
vn 0.488740 0.211032 0.846521
vn 0.488740 0.211032 0.846522
vn 0.918530 0.211032 0.334317
vn 0.918530 0.211032 0.334317
vn 0.918530 0.211032 0.334317
vn 0.918530 0.211032 0.334317
vn 0.918530 0.211032 -0.334317
vn 0.918530 0.211032 -0.334317
vn 0.918530 0.211032 -0.334317
vn 0.918530 0.211032 -0.334317
vn 0.311082 -0.782886 -0.538811
vn 0.311082 -0.782886 -0.538811
vn 0.311082 -0.782886 -0.538811
vn -0.108038 -0.782885 -0.612714
vn -0.108038 -0.782885 -0.612714
vn -0.108038 -0.782885 -0.612714
vn -0.476606 -0.782886 -0.399919
vn -0.476606 -0.782886 -0.399919
vn -0.476606 -0.782886 -0.399919
vn -0.622165 -0.782886 0.000000
vn -0.622165 -0.782886 0.000000
vn -0.622165 -0.782886 0.000000
vn -0.476606 -0.782886 0.399921
vn -0.476606 -0.782886 0.399921
vn -0.476606 -0.782886 0.399921
vn -0.108038 -0.782886 0.612713
vn -0.108038 -0.782886 0.612713
vn -0.108038 -0.782886 0.612713
vn 0.311082 -0.782886 0.538811
vn 0.311082 -0.782886 0.538811
vn 0.311082 -0.782886 0.538811
vn 0.584644 -0.782886 0.212793
vn 0.584644 -0.782886 0.212793
vn 0.584644 -0.782886 0.212793
vn 0.584644 -0.782886 -0.212793
vn 0.584644 -0.782886 -0.212793
vn 0.584644 -0.782886 -0.212793
vn 0.311082 0.782886 -0.538811
vn 0.311082 0.782886 -0.538811
vn 0.311082 0.782886 -0.538811
vn -0.108038 0.782886 -0.612713
vn -0.108038 0.782886 -0.612713
vn -0.108038 0.782886 -0.612713
vn -0.476605 0.782885 -0.399922
vn -0.476605 0.782885 -0.399922
vn -0.476605 0.782885 -0.399922
vn -0.622165 0.782886 0.000000
vn -0.622165 0.782886 0.000000
vn -0.622165 0.782886 0.000000
vn -0.476605 0.782885 0.399922
vn -0.476605 0.782885 0.399922
vn -0.476605 0.782885 0.399922
vn -0.108038 0.782887 0.612712
vn -0.108038 0.782887 0.612712
vn -0.108038 0.782887 0.612712
vn 0.311082 0.782886 0.538811
vn 0.311082 0.782886 0.538811
vn 0.311082 0.782886 0.538811
vn 0.584644 0.782887 0.212789
vn 0.584644 0.782887 0.212789
vn 0.584644 0.782887 0.212789
vn 0.584644 0.782886 -0.212793
vn 0.584644 0.782886 -0.212793
vn 0.584644 0.782886 -0.212793
vn 0.000000 0.000000 -1.000000
vn 0.000000 0.000000 -1.000000
vn 0.000000 0.000000 -1.000000
vn 0.000000 0.000000 -1.000000
vn -0.866025 0.000000 -0.500001
vn -0.866025 0.000000 -0.500001
vn -0.866025 0.000000 -0.500001
vn -0.866025 0.000000 -0.500001
vn -0.866025 0.000000 0.500001
vn -0.866025 0.000000 0.500001
vn -0.866025 0.000000 0.500001
vn -0.866025 0.000000 0.500001
vn -0.000000 0.000000 1.000000
vn -0.000000 0.000000 1.000000
vn -0.000000 0.000000 1.000000
vn -0.000000 0.000000 1.000000
vn 0.866025 0.000000 0.500001
vn 0.866025 0.000000 0.500001
vn 0.866025 0.000000 0.500001
vn 0.866025 0.000000 0.500001
vn 0.866026 0.000000 -0.500000
vn 0.866026 0.000000 -0.500000
vn 0.866026 0.000000 -0.500000
vn 0.866026 0.000000 -0.500000
vn 0.000000 -1.000000 0.000000
vn 0.000000 -1.000000 0.000000
vn 0.000000 -1.000000 0.000000
vn 0.000000 -1.000000 0.000000
vn 0.000000 -1.000000 0.000000
vn 0.000000 -1.000000 0.000000
vn 0.000000 -1.000000 0.000000
vn 0.000000 1.000000 0.000002
vn 0.000000 1.000000 -0.000000
vn 0.000000 1.000000 -0.000001
vn 0.000000 1.000000 -0.000002
vn 0.000000 1.000000 -0.000003
vn 0.000000 1.000000 -0.000002
vn 0.000000 1.000000 0.000002
s off
g HeadMatch2
usemtl initialShadingGroup
f 1/1/1 2/2/2 11/12/3 10/11/4
f 2/2/5 3/3/6 12/13/7 11/12/8
f 3/3/9 4/4/10 13/14/11 12/13/12
f 4/4/13 5/5/14 14/15/15 13/14/16
f 5/5/17 6/6/18 15/16/19 14/15/20
f 6/6/21 7/7/22 16/17/23 15/16/24
f 7/7/25 8/8/26 17/18/27 16/17/28
f 8/8/29 9/9/30 18/19/31 17/18/32
f 9/9/33 1/10/34 10/20/35 18/19/36
f 10/11/37 11/12/38 20/22/39 19/21/40
f 11/12/41 12/13/42 21/23/43 20/22/44
f 12/13/45 13/14/46 22/24/47 21/23/48
f 13/14/49 14/15/50 23/25/51 22/24/52
f 14/15/53 15/16/54 24/26/55 23/25/56
f 15/16/57 16/17/58 25/27/59 24/26/60
f 16/17/61 17/18/62 26/28/63 25/27/64
f 17/18/65 18/19/66 27/29/67 26/28/68
f 18/19/69 10/20/70 19/30/71 27/29/72
f 2/2/73 1/1/74 28/31/75
f 3/3/76 2/2/77 28/32/78
f 4/4/79 3/3/80 28/33/81
f 5/5/82 4/4/83 28/34/84
f 6/6/85 5/5/86 28/35/87
f 7/7/88 6/6/89 28/36/90
f 8/8/91 7/7/92 28/37/93
f 9/9/94 8/8/95 28/38/96
f 1/10/97 9/9/98 28/39/99
f 19/21/100 20/22/101 29/40/102
f 20/22/103 21/23/104 29/41/105
f 21/23/106 22/24/107 29/42/108
f 22/24/109 23/25/110 29/43/111
f 23/25/112 24/26/113 29/44/114
f 24/26/115 25/27/116 29/45/117
f 25/27/118 26/28/119 29/46/120
f 26/28/121 27/29/122 29/47/123
f 27/29/124 19/30/125 29/48/126
usemtl lambert4SG
f 30/49/127 31/50/128 37/51/129 36/52/130
f 31/50/131 32/53/132 38/54/133 37/51/134
f 32/53/135 33/55/136 39/56/137 38/54/138
f 33/55/139 34/57/140 40/58/141 39/56/142
f 34/57/143 35/59/144 41/60/145 40/58/146
f 35/59/147 30/61/148 36/62/149 41/60/150
s 1
f 31/63/151 30/64/152 42/65/153
f 32/66/154 31/63/151 42/65/153
f 33/67/155 32/66/154 42/65/153
f 34/68/156 33/67/155 42/65/153
f 35/69/157 34/68/156 42/65/153
f 30/64/152 35/69/157 42/65/153
s 2
f 36/70/158 37/71/159 43/72/160
f 37/71/159 38/73/161 43/72/160
f 38/73/161 39/74/162 43/72/160
f 39/74/162 40/75/163 43/72/160
f 40/75/163 41/76/164 43/72/160
f 41/76/164 36/70/158 43/72/160
