# Exported from ProBuilder
# http://www.procore3d.com/probuilder
# 4/19/2018 10:32:27 AM

mtllib ./Kitchen_Table.mtl
o Kitchen_Table

g Kitchen_Table
v -166.3 7.10592 329.8
v -166.4 7.10592 329.8
v -166.4 7.270613 329.8
v -166.3 7.270614 329.8
v -166.4 7.10592 327.6
v -166.3 7.10592 327.6
v -166.3 7.270614 327.6
v -166.4 7.270613 327.6
v -164.9 7.10592 329.8
v -165 7.10592 329.8
v -165 7.270614 329.8
v -164.9 7.270613 329.8
v -165 7.10592 329.8
v -166.3 7.10592 329.8
v -166.3 7.270614 329.8
v -165 7.270614 329.8
v -164.9 7.10592 327.6
v -164.9 7.270613 327.6
v -165 7.270614 327.6
v -165 7.10592 327.6
v -165 7.270614 327.6
v -166.3 7.270614 327.6
v -166.3 7.10592 327.6
v -165 7.10592 327.6
v -166.4 7.10592 329.8
v -166.4 7.10592 329.7
v -166.4 7.270614 329.7
v -166.4 7.270613 329.8
v -164.9 7.10592 329.7
v -164.9 7.10592 329.8
v -164.9 7.270613 329.8
v -164.9 7.270614 329.7
v -166.3 7.270614 329.7
v -166.3 7.270614 329.8
v -166.4 7.270613 329.8
v -166.4 7.270614 329.7
v -166.4 6.200106 329.7
v -166.4 6.200106 329.8
v -166.3 6.200106 329.8
v -166.3 6.200106 329.7
v -165 7.270614 329.7
v -165 7.270614 329.8
v -166.3 7.270614 329.8
v -166.3 7.270614 329.7
v -164.9 7.270614 329.7
v -164.9 7.270613 329.8
v -165 7.270614 329.8
v -165 7.270614 329.7
v -166.3 7.10592 329.7
v -166.3 7.10592 329.8
v -165 7.10592 329.8
v -165 7.10592 329.7
v -165 6.200106 329.7
v -165 6.200106 329.8
v -164.9 6.200106 329.8
v -164.9 6.200106 329.7
v -166.4 7.10592 329.7
v -166.4 7.10592 329.6
v -166.4 7.270614 329.6
v -166.4 7.270614 329.7
v -164.9 7.270614 329.7
v -164.9 7.270614 329.6
v -164.9 7.10592 329.6
v -164.9 7.10592 329.7
v -166.4 7.270614 329.7
v -166.4 7.270614 329.6
v -166.3 7.270614 329.6
v -166.3 7.270614 329.7
v -166.4 7.10592 329.6
v -166.4 7.10592 329.7
v -166.3 7.10592 329.7
v -166.3 7.10592 329.6
v -165 7.270614 329.6
v -165 7.270614 329.7
v -166.3 7.270614 329.7
v -166.3 7.270614 329.6
v -164.9 7.270614 329.6
v -164.9 7.270614 329.7
v -165 7.270614 329.7
v -165 7.270614 329.6
v -165 7.10592 329.7
v -165 7.10592 329.6
v -166.3 7.10592 329.6
v -166.3 7.10592 329.7
v -165 7.10592 329.6
v -165 7.10592 329.7
v -164.9 7.10592 329.7
v -164.9 7.10592 329.6
v -166.4 7.10592 327.7
v -166.4 7.10592 327.6
v -166.4 7.270613 327.6
v -166.4 7.270614 327.7
v -164.9 7.270614 327.7
v -164.9 7.270613 327.6
v -164.9 7.10592 327.6
v -164.9 7.10592 327.7
v -166.4 7.270614 327.7
v -166.4 7.270613 327.6
v -166.3 7.270614 327.6
v -166.3 7.270614 327.7
v -166.3 6.200106 327.7
v -166.3 6.200106 327.6
v -166.4 6.200106 327.6
v -166.4 6.200106 327.7
v -166.3 7.270614 327.6
v -165 7.270614 327.6
v -165 7.270614 327.7
v -166.3 7.270614 327.7
v -165 7.270614 327.6
v -164.9 7.270613 327.6
v -164.9 7.270614 327.7
v -165 7.270614 327.7
v -166.3 7.10592 327.6
v -166.3 7.10592 327.7
v -165 7.10592 327.7
v -165 7.10592 327.6
v -165 6.200106 327.6
v -165 6.200106 327.7
v -164.9 6.200106 327.7
v -164.9 6.200106 327.6
v -166.4 7.10592 329.6
v -166.4 7.10592 327.8
v -166.4 7.270614 327.8
v -166.4 7.270614 329.6
v -166.4 7.10592 327.8
v -166.4 7.10592 327.7
v -166.4 7.270614 327.7
v -166.4 7.270614 327.8
v -164.9 7.10592 329.6
v -164.9 7.270614 329.6
v -164.9 7.270614 327.8
v -164.9 7.10592 327.8
v -164.9 7.270614 327.8
v -164.9 7.270614 327.7
v -164.9 7.10592 327.7
v -164.9 7.10592 327.8
v -166.4 7.270614 327.7
v -166.3 7.270614 327.7
v -166.3 7.270614 327.8
v -166.4 7.270614 327.8
v -166.3 7.270614 327.8
v -166.3 7.270614 329.6
v -166.4 7.270614 329.6
v -166.4 7.270614 327.8
v -166.3 7.10592 329.6
v -166.3 7.10592 327.8
v -166.4 7.10592 327.8
v -166.4 7.10592 329.6
v -166.3 7.10592 327.8
v -166.3 7.10592 327.7
v -166.4 7.10592 327.7
v -166.4 7.10592 327.8
v -166.3 7.270614 327.7
v -165 7.270614 327.7
v -165 7.270614 327.8
v -166.3 7.270614 327.8
v -165 7.270614 327.8
v -165 7.270614 329.6
v -166.3 7.270614 329.6
v -166.3 7.270614 327.8
v -165 7.270614 327.7
v -164.9 7.270614 327.7
v -164.9 7.270614 327.8
v -165 7.270614 327.8
v -164.9 7.270614 327.8
v -164.9 7.270614 329.6
v -165 7.270614 329.6
v -165 7.270614 327.8
v -166.3 7.10592 327.7
v -166.3 7.10592 327.8
v -165 7.10592 327.8
v -165 7.10592 327.7
v -166.3 7.10592 327.8
v -166.3 7.10592 329.6
v -165 7.10592 329.6
v -165 7.10592 327.8
v -165 7.10592 327.7
v -165 7.10592 327.8
v -164.9 7.10592 327.8
v -164.9 7.10592 327.7
v -165 7.10592 327.8
v -165 7.10592 329.6
v -164.9 7.10592 329.6
v -164.9 7.10592 327.8
v -166.4 7.10592 329.7
v -166.4 7.10592 329.8
v -166.4 6.200106 329.7
v -166.4 6.200106 329.8
v -166.4 7.10592 329.8
v -166.3 7.10592 329.8
v -166.4 6.200106 329.8
v -166.3 6.200106 329.8
v -166.3 7.10592 329.8
v -166.3 7.10592 329.7
v -166.3 6.200106 329.8
v -166.3 6.200106 329.7
v -166.3 7.10592 329.7
v -166.4 7.10592 329.7
v -166.3 6.200106 329.7
v -166.4 6.200106 329.7
v -166.3 7.10592 327.7
v -166.3 7.10592 327.6
v -166.3 6.200106 327.7
v -166.3 6.200106 327.6
v -166.3 7.10592 327.6
v -166.4 7.10592 327.6
v -166.3 6.200106 327.6
v -166.4 6.200106 327.6
v -166.4 7.10592 327.6
v -166.4 7.10592 327.7
v -166.4 6.200106 327.6
v -166.4 6.200106 327.7
v -166.4 7.10592 327.7
v -166.3 7.10592 327.7
v -166.4 6.200106 327.7
v -166.3 6.200106 327.7
v -165 7.10592 327.6
v -165 7.10592 327.7
v -165 6.200106 327.6
v -165 6.200106 327.7
v -165 7.10592 327.7
v -164.9 7.10592 327.7
v -165 6.200106 327.7
v -164.9 6.200106 327.7
v -164.9 7.10592 327.7
v -164.9 7.10592 327.6
v -164.9 6.200106 327.7
v -164.9 6.200106 327.6
v -164.9 7.10592 327.6
v -165 7.10592 327.6
v -164.9 6.200106 327.6
v -165 6.200106 327.6
v -165 7.10592 329.7
v -165 7.10592 329.8
v -165 6.200106 329.7
v -165 6.200106 329.8
v -165 7.10592 329.8
v -164.9 7.10592 329.8
v -165 6.200106 329.8
v -164.9 6.200106 329.8
v -164.9 7.10592 329.8
v -164.9 7.10592 329.7
v -164.9 6.200106 329.8
v -164.9 6.200106 329.7
v -164.9 7.10592 329.7
v -165 7.10592 329.7
v -164.9 6.200106 329.7
v -165 6.200106 329.7

vn -1.174934E-07 0 1
vn -1.174934E-07 0 1
vn -1.174934E-07 0 1
vn -1.174934E-07 0 1
vn 0.0001837167 0 -1
vn 0.0001837167 0 -1
vn 0.0001837167 0 -1
vn 0.0001837167 0 -1
vn -1.174934E-07 0 1
vn -1.174934E-07 0 1
vn -1.174934E-07 0 1
vn -1.174934E-07 0 1
vn -1.174934E-07 0 1
vn -1.174934E-07 0 1
vn -1.174934E-07 0 1
vn -1.174934E-07 0 1
vn -0.0001834537 0 -1
vn -0.0001834537 0 -1
vn -0.0001834537 0 -1
vn -0.0001834537 0 -1
vn 1.174934E-07 0 -1
vn 1.174934E-07 0 -1
vn 1.174934E-07 0 -1
vn 1.174934E-07 0 -1
vn -1 0 7.049599E-08
vn -1 0 7.049599E-08
vn -1 0 7.049599E-08
vn -1 0 7.049599E-08
vn 1 0 -7.049599E-08
vn 1 0 -7.049599E-08
vn 1 0 -7.049599E-08
vn 1 0 -7.049599E-08
vn 0 0.8234673 0
vn -1.415741E-06 0.8234673 1.415525E-06
vn -2.831482E-06 0.8234673 2.83105E-06
vn -1.415741E-06 0.8234673 1.415525E-06
vn 0 -0.8234673 0
vn 0 -0.8234673 0
vn 0 -0.8234673 0
vn 0 -0.8234673 0
vn 0 0.8234673 0
vn 0 0.8234673 0
vn 0 0.8234673 0
vn 0 0.8234673 0
vn -3.326294E-13 0.8234673 2.831049E-06
vn 1.415524E-06 0.8234673 1.415524E-06
vn 2.831049E-06 0.8234673 -1.995775E-13
vn 1.415524E-06 0.8234673 1.415524E-06
vn 0 -0.8234673 0
vn 0 -0.8234673 0
vn 0 -0.8234673 0
vn 0 -0.8234673 0
vn 0 -0.8234673 0
vn 0 -0.8234673 0
vn 0 -0.8234673 0
vn 0 -0.8234673 0
vn -1 0 7.049599E-08
vn -1 0 7.049599E-08
vn -1 0 7.049599E-08
vn -1 0 7.049599E-08
vn 1 0 -7.049599E-08
vn 1 0 -7.049599E-08
vn 1 0 -7.049599E-08
vn 1 0 -7.049599E-08
vn 0 0.8234673 0
vn 0 0.8234673 0
vn 0 0.8234673 0
vn 0 0.8234673 0
vn 0 -0.8234673 0
vn 0 -0.8234673 0
vn 0 -0.8234673 0
vn 0 -0.8234673 0
vn 0 0.8234673 0
vn 0 0.8234673 0
vn 0 0.8234673 0
vn 0 0.8234673 0
vn 0 0.8234673 0
vn 0 0.8234673 0
vn 0 0.8234673 0
vn 0 0.8234673 0
vn 0 -0.8234673 0
vn 0 -0.8234673 0
vn 0 -0.8234673 0
vn 0 -0.8234673 0
vn 0 -0.8234673 0
vn 0 -0.8234673 0
vn 0 -0.8234673 0
vn 0 -0.8234673 0
vn -1 0 7.049599E-08
vn -1 0 7.049599E-08
vn -1 0 7.049599E-08
vn -1 0 7.049599E-08
vn 1 0 -7.049599E-08
vn 1 0 -7.049599E-08
vn 1 0 -7.049599E-08
vn 1 0 -7.049599E-08
vn -1.41561E-06 0.8234673 -1.415827E-06
vn -2.830961E-06 0.8234673 -2.831393E-06
vn -1.41561E-06 0.8234673 -1.415827E-06
vn 0 0.8234673 0
vn 0 -0.8234673 0
vn 0 -0.8234673 0
vn 0 -0.8234673 0
vn 0 -0.8234673 0
vn 0 0.8234673 0
vn 0 0.8234673 0
vn 0 0.8234673 0
vn 0 0.8234673 0
vn 1.415395E-06 0.8234673 -1.415827E-06
vn 2.83053E-06 0.8234673 -2.831394E-06
vn 1.415395E-06 0.8234673 -1.415827E-06
vn 0 0.8234673 0
vn 0 -0.8234673 0
vn 0 -0.8234673 0
vn 0 -0.8234673 0
vn 0 -0.8234673 0
vn 0 -0.8234673 0
vn 0 -0.8234673 0
vn 0 -0.8234673 0
vn 0 -0.8234673 0
vn -1 0 7.049599E-08
vn -1 0 7.049599E-08
vn -1 0 7.049599E-08
vn -1 0 7.049599E-08
vn -1 0 7.049599E-08
vn -1 0 7.049599E-08
vn -1 0 7.049599E-08
vn -1 0 7.049599E-08
vn 1 0 -7.049599E-08
vn 1 0 -7.049599E-08
vn 1 0 -7.049599E-08
vn 1 0 -7.049599E-08
vn 1 0 -7.049599E-08
vn 1 0 -7.049599E-08
vn 1 0 -7.049599E-08
vn 1 0 -7.049599E-08
vn 0 0.8234673 0
vn 0 0.8234673 0
vn 0 0.8234673 0
vn 0 0.8234673 0
vn 0 0.8234673 0
vn 0 0.8234673 0
vn 0 0.8234673 0
vn 0 0.8234673 0
vn 0 -0.8234673 0
vn 0 -0.8234673 0
vn 0 -0.8234673 0
vn 0 -0.8234673 0
vn 0 -0.8234673 0
vn 0 -0.8234673 0
vn 0 -0.8234673 0
vn 0 -0.8234673 0
vn 0 0.8234673 0
vn 0 0.8234673 0
vn 0 0.8234673 0
vn 0 0.8234673 0
vn 0 0.8234673 0
vn 0 0.8234673 0
vn 0 0.8234673 0
vn 0 0.8234673 0
vn 0 0.8234673 0
vn 0 0.8234673 0
vn 0 0.8234673 0
vn 0 0.8234673 0
vn 0 0.8234673 0
vn 0 0.8234673 0
vn 0 0.8234673 0
vn 0 0.8234673 0
vn 0 -0.8234673 0
vn 0 -0.8234673 0
vn 0 -0.8234673 0
vn 0 -0.8234673 0
vn 0 -0.8234673 0
vn 0 -0.8234673 0
vn 0 -0.8234673 0
vn 0 -0.8234673 0
vn 0 -0.8234673 0
vn 0 -0.8234673 0
vn 0 -0.8234673 0
vn 0 -0.8234673 0
vn 0 -0.8234673 0
vn 0 -0.8234673 0
vn 0 -0.8234673 0
vn 0 -0.8234673 0
vn -1 0 7.049599E-08
vn -1 0 7.049599E-08
vn -1 0 7.049599E-08
vn -1 0 7.049599E-08
vn -1.174934E-07 0 1
vn -1.174934E-07 0 1
vn -1.174934E-07 0 1
vn -1.174934E-07 0 1
vn 1 0 -7.049599E-08
vn 1 0 -7.049599E-08
vn 1 0 -7.049599E-08
vn 1 0 -7.049599E-08
vn 1.174934E-07 0 -1
vn 1.174934E-07 0 -1
vn 1.174934E-07 0 -1
vn 1.174934E-07 0 -1
vn 1 0 -7.049599E-08
vn 1 0 -7.049599E-08
vn 1 0 -7.049599E-08
vn 1 0 -7.049599E-08
vn 9.191709E-05 -6.871547E-06 -1
vn 0.0001837167 -1.374309E-05 -1
vn 1.174934E-07 0 -1
vn 9.191709E-05 -6.871547E-06 -1
vn -1 0 7.049599E-08
vn -1 0 7.049599E-08
vn -1 0 7.049599E-08
vn -1 0 7.049599E-08
vn -1.174934E-07 0 1
vn -1.174934E-07 0 1
vn -1.174934E-07 0 1
vn -1.174934E-07 0 1
vn -1 0 7.049599E-08
vn -1 0 7.049599E-08
vn -1 0 7.049599E-08
vn -1 0 7.049599E-08
vn -1.174934E-07 0 1
vn -1.174934E-07 0 1
vn -1.174934E-07 0 1
vn -1.174934E-07 0 1
vn 1 0 -7.049599E-08
vn 1 0 -7.049599E-08
vn 1 0 -7.049599E-08
vn 1 0 -7.049599E-08
vn -9.166809E-05 -6.871547E-06 -1
vn -0.0001834537 0 -1
vn 1.174934E-07 -1.374309E-05 -1
vn -9.166809E-05 -6.871547E-06 -1
vn -1 0 7.049599E-08
vn -1 0 7.049599E-08
vn -1 0 7.049599E-08
vn -1 0 7.049599E-08
vn -1.174934E-07 0 1
vn -1.174934E-07 0 1
vn -1.174934E-07 0 1
vn -1.174934E-07 0 1
vn 1 0 -7.049599E-08
vn 1 0 -7.049599E-08
vn 1 0 -7.049599E-08
vn 1 0 -7.049599E-08
vn 1.174934E-07 0 -1
vn 1.174934E-07 0 -1
vn 1.174934E-07 0 -1
vn 1.174934E-07 0 -1

vt -1.400009 0
vt -1.5 0
vt -1.5 0.2
vt -1.400009 0.2000003
vt -1.5 -1.255438E-10
vt -1.400009 -1.255427E-10
vt -1.400009 0.2000003
vt -1.5 0.2
vt 0 0
vt -0.1000061 0
vt -0.1000061 0.2000003
vt 0 0.2
vt -0.1000061 0
vt -1.400009 0
vt -1.400009 0.2000003
vt -0.1000061 0.2000003
vt 1.459958E-10 -1.255438E-10
vt 1.459958E-10 0.2
vt -0.1000061 0.2000003
vt -0.1000061 -1.255427E-10
vt -0.1000061 0.2000003
vt -1.400009 0.2000003
vt -1.400009 -1.255427E-10
vt -0.1000061 -1.255427E-10
vt 0 0
vt -0.1000061 0
vt -0.1000061 0.2000003
vt 0 0.2
vt -0.1000061 0
vt 0 0
vt 0 0.2
vt -0.1000061 0.2000003
vt 1.400009 -0.1000061
vt 1.400009 6.27056E-15
vt 1.5 6.270551E-15
vt 1.5 -0.1000061
vt -1.5 -0.1000061
vt -1.5 0
vt -1.400009 0
vt -1.400009 -0.1000061
vt 0.1000061 -0.1000061
vt 0.1000061 6.27056E-15
vt 1.400009 6.27056E-15
vt 1.400009 -0.1000061
vt 4.036711E-14 -0.1000061
vt 4.036705E-14 6.270551E-15
vt 0.1000061 6.27056E-15
vt 0.1000061 -0.1000061
vt 1.400009 -0.1000061
vt 1.400009 0
vt 0.1000061 0
vt 0.1000061 -0.1000061
vt -0.1000061 -0.1000061
vt -0.1000061 0
vt 0 0
vt 0 -0.1000061
vt -0.1000061 0
vt -0.1999817 0
vt -0.1999817 0.2000003
vt -0.1000061 0.2000003
vt -0.1000061 0.2000003
vt -0.1999817 0.2000003
vt -0.1999817 0
vt -0.1000061 0
vt 1.5 -0.1000061
vt 1.5 -0.1999817
vt 1.400009 -0.1999817
vt 1.400009 -0.1000061
vt 1.5 -0.1999817
vt 1.5 -0.1000061
vt 1.400009 -0.1000061
vt 1.400009 -0.1999817
vt 0.1000061 -0.1999817
vt 0.1000061 -0.1000061
vt 1.400009 -0.1000061
vt 1.400009 -0.1999817
vt 4.036711E-14 -0.1999817
vt 4.036711E-14 -0.1000061
vt 0.1000061 -0.1000061
vt 0.1000061 -0.1999817
vt 0.1000061 -0.1000061
vt 0.1000061 -0.1999817
vt 1.400009 -0.1999817
vt 1.400009 -0.1000061
vt 0.1000061 -0.1999817
vt 0.1000061 -0.1000061
vt 0 -0.1000061
vt 0 -0.1999817
vt -2.100006 0
vt -2.2 0
vt -2.2 0.2
vt -2.100006 0.2000003
vt -2.100006 0.2000003
vt -2.2 0.2
vt -2.2 0
vt -2.100006 0
vt 1.5 -2.100006
vt 1.5 -2.2
vt 1.400009 -2.199982
vt 1.400009 -2.100006
vt -1.400009 -2.100006
vt -1.400009 -2.199982
vt -1.5 -2.199982
vt -1.5 -2.100006
vt 1.400009 -2.199982
vt 0.1000061 -2.199982
vt 0.1000061 -2.100006
vt 1.400009 -2.100006
vt 0.1000061 -2.199982
vt 4.036705E-14 -2.2
vt 4.036711E-14 -2.100006
vt 0.1000061 -2.100006
vt 1.400009 -2.199982
vt 1.400009 -2.100006
vt 0.1000061 -2.100006
vt 0.1000061 -2.199982
vt -0.1000061 -2.199982
vt -0.1000061 -2.100006
vt 0 -2.100006
vt 0 -2.199982
vt -0.1999817 0
vt -2 0
vt -2 0.2000003
vt -0.1999817 0.2000003
vt -2 0
vt -2.100006 0
vt -2.100006 0.2000003
vt -2 0.2000003
vt -0.1999817 0
vt -0.1999817 0.2000003
vt -2 0.2000003
vt -2 0
vt -2 0.2000003
vt -2.100006 0.2000003
vt -2.100006 0
vt -2 0
vt 1.5 -2.100006
vt 1.400009 -2.100006
vt 1.400009 -2
vt 1.5 -2
vt 1.400009 -2
vt 1.400009 -0.1999817
vt 1.5 -0.1999817
vt 1.5 -2
vt 1.400009 -0.1999817
vt 1.400009 -2
vt 1.5 -2
vt 1.5 -0.1999817
vt 1.400009 -2
vt 1.400009 -2.100006
vt 1.5 -2.100006
vt 1.5 -2
vt 1.400009 -2.100006
vt 0.1000061 -2.100006
vt 0.1000061 -2
vt 1.400009 -2
vt 0.1000061 -2
vt 0.1000061 -0.1999817
vt 1.400009 -0.1999817
vt 1.400009 -2
vt 0.1000061 -2.100006
vt 4.036711E-14 -2.100006
vt 4.036711E-14 -2
vt 0.1000061 -2
vt 4.036711E-14 -2
vt 4.036711E-14 -0.1999817
vt 0.1000061 -0.1999817
vt 0.1000061 -2
vt 1.400009 -2.100006
vt 1.400009 -2
vt 0.1000061 -2
vt 0.1000061 -2.100006
vt 1.400009 -2
vt 1.400009 -0.1999817
vt 0.1000061 -0.1999817
vt 0.1000061 -2
vt 0.1000061 -2.100006
vt 0.1000061 -2
vt 0 -2
vt 0 -2.100006
vt 0.1000061 -2
vt 0.1000061 -0.1999817
vt 0 -0.1999817
vt 0 -2
vt -0.1000061 0
vt 0 0
vt -0.1000061 -1.1
vt 0 -1.1
vt -1.5 0
vt -1.400009 0
vt -1.5 -1.1
vt -1.400009 -1.1
vt 0 0
vt 0.1000061 0
vt 0 -1.1
vt 0.1000061 -1.1
vt 1.400009 0
vt 1.5 0
vt 1.400009 -1.1
vt 1.5 -1.1
vt 2.100006 0
vt 2.199982 0
vt 2.100006 -1.1
vt 2.199982 -1.1
vt 1.400413 0
vt 1.500404 0
vt 1.400413 -1.1
vt 1.500404 -1.1
vt -2.2 0
vt -2.100006 0
vt -2.199982 -1.1
vt -2.100006 -1.1
vt -1.5 0
vt -1.400009 0
vt -1.5 -1.1
vt -1.400009 -1.1
vt -2.199982 0
vt -2.100006 0
vt -2.199982 -1.1
vt -2.100006 -1.1
vt -0.1000061 0
vt 0 0
vt -0.1000061 -1.1
vt 0 -1.1
vt 2.100006 0
vt 2.2 0
vt 2.100006 -1.1
vt 2.199982 -1.1
vt -0.0004038564 3.671646E-05
vt 0.09960225 3.671646E-05
vt -0.000403853 -1.099963
vt 0.09960225 -1.099963
vt -0.1000061 0
vt 0 0
vt -0.1000061 -1.1
vt 0 -1.1
vt -0.1000061 0
vt 0 0
vt -0.1000061 -1.1
vt 0 -1.1
vt 0 0
vt 0.1000061 0
vt 0 -1.1
vt 0.1000061 -1.1
vt 0 0
vt 0.1000061 0
vt 0 -1.1
vt 0.1000061 -1.1

g Kitchen_Table
usemtl Default_Prototype
f 4/4/4 3/3/3 2/2/2 1/1/1
f 5/5/5 8/8/8 7/7/7 6/6/6
f 12/12/12 11/11/11 10/10/10 9/9/9
f 16/16/16 15/15/15 14/14/14 13/13/13
f 20/20/20 19/19/19 18/18/18 17/17/17
f 23/23/23 22/22/22 21/21/21 24/24/24
f 28/28/28 27/27/27 26/26/26 25/25/25
f 30/30/30 29/29/29 32/32/32 31/31/31
f 35/35/35 34/34/34 33/33/33 36/36/36
f 40/40/40 39/39/39 38/38/38 37/37/37
f 43/43/43 42/42/42 41/41/41 44/44/44
f 47/47/47 46/46/46 45/45/45 48/48/48
f 49/49/49 52/52/52 51/51/51 50/50/50
f 56/56/56 55/55/55 54/54/54 53/53/53
f 60/60/60 59/59/59 58/58/58 57/57/57
f 63/63/63 62/62/62 61/61/61 64/64/64
f 65/65/65 68/68/68 67/67/67 66/66/66
f 70/70/70 69/69/69 72/72/72 71/71/71
f 75/75/75 74/74/74 73/73/73 76/76/76
f 79/79/79 78/78/78 77/77/77 80/80/80
f 82/82/82 81/81/81 84/84/84 83/83/83
f 88/88/88 87/87/87 86/86/86 85/85/85
f 92/92/92 91/91/91 90/90/90 89/89/89
f 95/95/95 94/94/94 93/93/93 96/96/96
f 100/100/100 99/99/99 98/98/98 97/97/97
f 104/104/104 103/103/103 102/102/102 101/101/101
f 108/108/108 107/107/107 106/106/106 105/105/105
f 112/112/112 111/111/111 110/110/110 109/109/109
f 116/116/116 115/115/115 114/114/114 113/113/113
f 120/120/120 119/119/119 118/118/118 117/117/117
f 124/124/124 123/123/123 122/122/122 121/121/121
f 128/128/128 127/127/127 126/126/126 125/125/125
f 129/129/129 132/132/132 131/131/131 130/130/130
f 136/136/136 135/135/135 134/134/134 133/133/133
f 140/140/140 139/139/139 138/138/138 137/137/137
f 143/143/143 142/142/142 141/141/141 144/144/144
f 146/146/146 145/145/145 148/148/148 147/147/147
f 150/150/150 149/149/149 152/152/152 151/151/151
f 156/156/156 155/155/155 154/154/154 153/153/153
f 159/159/159 158/158/158 157/157/157 160/160/160
f 164/164/164 163/163/163 162/162/162 161/161/161
f 167/167/167 166/166/166 165/165/165 168/168/168
f 172/172/172 171/171/171 170/170/170 169/169/169
f 176/176/176 175/175/175 174/174/174 173/173/173
f 180/180/180 179/179/179 178/178/178 177/177/177
f 184/184/184 183/183/183 182/182/182 181/181/181
f 187/187/187 188/188/188 186/186/186 185/185/185
f 191/191/191 192/192/192 190/190/190 189/189/189
f 195/195/195 196/196/196 194/194/194 193/193/193
f 199/199/199 200/200/200 198/198/198 197/197/197
f 203/203/203 204/204/204 202/202/202 201/201/201
f 207/207/207 208/208/208 206/206/206 205/205/205
f 211/211/211 212/212/212 210/210/210 209/209/209
f 215/215/215 216/216/216 214/214/214 213/213/213
f 219/219/219 220/220/220 218/218/218 217/217/217
f 223/223/223 224/224/224 222/222/222 221/221/221
f 227/227/227 228/228/228 226/226/226 225/225/225
f 231/231/231 232/232/232 230/230/230 229/229/229
f 235/235/235 236/236/236 234/234/234 233/233/233
f 239/239/239 240/240/240 238/238/238 237/237/237
f 243/243/243 244/244/244 242/242/242 241/241/241
f 247/247/247 248/248/248 246/246/246 245/245/245

