# This file uses centimeters as units for non-parametric coordinates.

mtllib Kitchen_Shelf.mtl
g default
v 601.420166 86.618042 685.680176
v 621.545410 86.618042 685.680176
v 601.420166 161.381775 685.680176
v 621.545410 161.381775 685.680176
v 601.420166 161.381775 635.983276
v 621.545410 161.381775 635.983276
v 601.420166 86.618042 635.983276
v 621.545410 86.618042 635.983276
v 621.545410 148.379395 685.680176
v 601.420166 148.379395 685.680176
v 601.420166 148.379395 635.983276
v 621.545410 148.379395 635.983276
v 621.545410 145.128845 685.680176
v 601.420166 145.128845 685.680176
v 601.420166 145.128845 635.983276
v 621.545410 145.128845 635.983276
v 621.545410 99.620422 685.680176
v 601.420166 99.620422 685.680176
v 601.420166 99.620422 635.983276
v 621.545410 99.620422 635.983276
v 621.545410 102.871033 685.680176
v 601.420166 102.871033 685.680176
v 601.420166 102.871033 635.983276
v 621.545410 102.871033 635.983276
v 621.545410 112.622803 685.680176
v 601.420166 112.622803 685.680176
v 601.420166 112.622803 635.983276
v 621.545410 112.622803 635.983276
v 621.545410 115.873413 685.680176
v 601.420166 115.873413 685.680176
v 601.420166 115.873413 635.983276
v 621.545410 115.873413 635.983276
v 621.545410 161.381775 683.428772
v 601.420166 161.381775 683.428772
v 601.420166 86.618042 683.428772
v 621.545410 86.618042 683.428772
v 621.545410 99.620422 683.428772
v 621.545410 102.871033 683.428772
v 621.545410 112.622803 683.428772
v 621.545410 115.873413 683.428772
v 621.545410 145.128845 683.428772
v 621.545410 148.379395 683.428772
v 621.545410 161.381775 638.400757
v 601.420166 161.381775 638.400757
v 601.420166 86.618042 638.400757
v 621.545410 86.618042 638.400757
v 621.545410 99.620422 638.400757
v 621.545410 102.871033 638.400757
v 621.545410 112.622803 638.400757
v 621.545410 115.873413 638.400757
v 621.545410 145.128845 638.400757
v 621.545410 148.379395 638.400757
v 621.545410 158.131226 635.983276
v 601.420166 158.131226 635.983276
v 601.420166 158.131226 685.680176
v 621.545410 158.131226 685.680176
v 621.545410 158.131226 683.428772
v 621.545410 158.131226 638.400757
v 621.545410 89.868652 635.983276
v 601.420166 89.868652 635.983276
v 601.420166 89.868652 685.680176
v 621.545410 89.868652 685.680176
v 621.545410 89.868652 683.428772
v 621.545410 89.868652 638.400757
v 604.953735 89.868652 683.428772
v 604.953735 99.620422 683.428772
v 604.953735 89.868652 638.400757
v 604.953735 99.620422 638.400757
v 604.953735 102.871033 683.428772
v 604.953735 112.622803 683.428772
v 604.953735 102.871033 638.400757
v 604.953735 112.622803 638.400757
v 604.953735 115.873413 683.428772
v 604.953735 145.128845 683.428772
v 604.953735 115.873413 638.400757
v 604.953735 145.128845 638.400757
v 604.953735 158.131226 683.428772
v 604.953735 158.131226 638.400757
v 604.953735 148.379395 683.428772
v 604.953735 148.379395 638.400757
vt 0.519487 0.288974
vt 0.625000 0.288974
vt 0.519487 0.394487
vt 0.625000 0.394487
vt 0.519487 0.500000
vt 0.625000 0.500000
vt 0.519487 0.605513
vt 0.625000 0.605513
vt 0.519487 0.711025
vt 0.625000 0.711025
vt 0.730513 0.288974
vt 0.730513 0.394487
vt 0.625000 0.386199
vt 0.519487 0.386199
vt 0.519487 0.508288
vt 0.625000 0.508288
vt 0.730513 0.386199
vt 0.625000 0.383376
vt 0.519487 0.383376
vt 0.519487 0.511111
vt 0.625000 0.511111
vt 0.730513 0.383376
vt 0.625000 0.297968
vt 0.519487 0.297968
vt 0.519487 0.596519
vt 0.625000 0.596519
vt 0.730513 0.297968
vt 0.625000 0.302909
vt 0.519487 0.302909
vt 0.519487 0.591578
vt 0.625000 0.591578
vt 0.730513 0.302909
vt 0.625000 0.331614
vt 0.519487 0.331614
vt 0.519487 0.562873
vt 0.625000 0.562873
vt 0.730513 0.331614
vt 0.625000 0.335378
vt 0.519487 0.335378
vt 0.519487 0.559109
vt 0.625000 0.559109
vt 0.730513 0.335378
vt 0.625000 0.398423
vt 0.628935 0.394487
vt 0.519487 0.398423
vt 0.519487 0.707090
vt 0.625000 0.707090
vt 0.628935 0.288974
vt 0.628935 0.297968
vt 0.628935 0.302909
vt 0.628935 0.331614
vt 0.628935 0.335378
vt 0.628935 0.383376
vt 0.628935 0.386199
vt 0.625000 0.497712
vt 0.728224 0.394487
vt 0.519487 0.497712
vt 0.519487 0.607801
vt 0.625000 0.607801
vt 0.728224 0.288974
vt 0.728224 0.297968
vt 0.728224 0.302909
vt 0.728224 0.331614
vt 0.728224 0.335378
vt 0.728224 0.383376
vt 0.728224 0.386199
vt 0.625000 0.503112
vt 0.730513 0.391375
vt 0.519487 0.503112
vt 0.519487 0.391375
vt 0.625000 0.391375
vt 0.628935 0.391375
vt 0.728224 0.391375
vt 0.625000 0.602166
vt 0.730513 0.292322
vt 0.519487 0.602166
vt 0.519487 0.292322
vt 0.625000 0.292322
vt 0.628935 0.292322
vt 0.728224 0.292322
vt 0.628935 0.297968
vt 0.628935 0.292322
vt 0.728224 0.292322
vt 0.728224 0.297968
vt 0.628935 0.331614
vt 0.628935 0.302909
vt 0.728224 0.302909
vt 0.728224 0.331614
vt 0.628935 0.383376
vt 0.628935 0.335378
vt 0.728224 0.335378
vt 0.728224 0.383376
vt 0.728224 0.391375
vt 0.628935 0.391375
vt 0.628935 0.386199
vt 0.728224 0.386199
vn 0.000000 0.000000 1.000000
vn 0.000000 0.000000 1.000000
vn 0.000000 0.000000 1.000000
vn 0.000000 0.000000 1.000000
vn 0.000000 1.000000 0.000000
vn 0.000000 1.000000 0.000000
vn 0.000000 1.000000 0.000000
vn 0.000000 1.000000 0.000000
vn 0.000000 0.000000 -1.000000
vn 0.000000 0.000000 -1.000000
vn 0.000000 0.000000 -1.000000
vn 0.000000 0.000000 -1.000000
vn 0.000000 -1.000000 0.000000
vn 0.000000 -1.000000 0.000000
vn 0.000000 -1.000000 0.000000
vn 0.000000 -1.000000 0.000000
vn 1.000000 0.000000 0.000000
vn 1.000000 0.000000 0.000000
vn 1.000000 0.000000 0.000000
vn 1.000000 0.000000 0.000000
vn 0.000000 0.000000 1.000000
vn 0.000000 0.000000 1.000000
vn 0.000000 0.000000 1.000000
vn 0.000000 0.000000 1.000000
vn 0.000000 0.000000 -1.000000
vn 0.000000 0.000000 -1.000000
vn 0.000000 0.000000 -1.000000
vn 0.000000 0.000000 -1.000000
vn 1.000000 0.000000 0.000000
vn 1.000000 0.000000 0.000000
vn 1.000000 0.000000 0.000000
vn 1.000000 0.000000 0.000000
vn 0.000000 0.000000 1.000000
vn 0.000000 0.000000 1.000000
vn 0.000000 0.000000 1.000000
vn 0.000000 0.000000 1.000000
vn 0.000000 0.000000 -1.000000
vn 0.000000 0.000000 -1.000000
vn 0.000000 0.000000 -1.000000
vn 0.000000 0.000000 -1.000000
vn 1.000000 0.000000 0.000000
vn 1.000000 0.000000 0.000000
vn 1.000000 0.000000 0.000000
vn 1.000000 0.000000 0.000000
vn 0.000000 0.000000 1.000000
vn 0.000000 0.000000 1.000000
vn 0.000000 0.000000 -1.000000
vn 0.000000 0.000000 -1.000000
vn 1.000000 0.000000 0.000000
vn 1.000000 0.000000 0.000000
vn 0.000000 0.000000 1.000000
vn 0.000000 0.000000 1.000000
vn 0.000000 0.000000 -1.000000
vn 0.000000 0.000000 -1.000000
vn 1.000000 0.000000 0.000000
vn 1.000000 0.000000 0.000000
vn 0.000000 0.000000 1.000000
vn 0.000000 0.000000 1.000000
vn 0.000000 0.000000 -1.000000
vn 0.000000 0.000000 -1.000000
vn 1.000000 0.000000 0.000000
vn 1.000000 0.000000 0.000000
vn 0.000000 1.000000 0.000000
vn 0.000000 1.000000 0.000000
vn 0.000000 -1.000000 0.000000
vn 0.000000 -1.000000 0.000000
vn 1.000000 0.000000 0.000000
vn 1.000000 0.000000 0.000000
vn 1.000000 0.000000 0.000000
vn 1.000000 0.000000 0.000000
vn 1.000000 0.000000 0.000000
vn 1.000000 0.000000 0.000000
vn 1.000000 0.000000 0.000000
vn 1.000000 0.000000 0.000000
vn 1.000000 0.000000 0.000000
vn 1.000000 0.000000 0.000000
vn 1.000000 0.000000 0.000000
vn 1.000000 0.000000 0.000000
vn 1.000000 0.000000 0.000000
vn 1.000000 0.000000 0.000000
vn 1.000000 0.000000 0.000000
vn 1.000000 0.000000 0.000000
vn 1.000000 0.000000 0.000000
vn 1.000000 0.000000 0.000000
vn 1.000000 0.000000 0.000000
vn 1.000000 0.000000 0.000000
vn 0.000000 1.000000 0.000000
vn 0.000000 1.000000 0.000000
vn 0.000000 -1.000000 0.000000
vn 0.000000 -1.000000 0.000000
vn 1.000000 0.000000 0.000000
vn 1.000000 0.000000 0.000000
vn 1.000000 0.000000 0.000000
vn 1.000000 0.000000 0.000000
vn 1.000000 0.000000 0.000000
vn 1.000000 0.000000 0.000000
vn 1.000000 0.000000 0.000000
vn 1.000000 0.000000 0.000000
vn 1.000000 0.000000 0.000000
vn 1.000000 0.000000 0.000000
vn 1.000000 0.000000 0.000000
vn 1.000000 0.000000 0.000000
vn 1.000000 0.000000 0.000000
vn 1.000000 0.000000 0.000000
vn 0.000000 0.000000 -1.000000
vn 0.000000 0.000000 -1.000000
vn 0.000000 0.000000 1.000000
vn 0.000000 0.000000 1.000000
vn 1.000000 0.000000 0.000000
vn 1.000000 0.000000 0.000000
vn 1.000000 0.000000 0.000000
vn 1.000000 0.000000 0.000000
vn 0.000000 0.000000 -1.000000
vn 0.000000 0.000000 -1.000000
vn 0.000000 0.000000 -1.000000
vn 0.000000 0.000000 -1.000000
vn 0.000000 1.000000 0.000000
vn 0.000000 1.000000 0.000000
vn 0.000000 1.000000 0.000000
vn 0.000000 1.000000 0.000000
vn 0.000000 0.000000 1.000000
vn 0.000000 0.000000 1.000000
vn 0.000000 0.000000 1.000000
vn 0.000000 0.000000 1.000000
vn 0.000000 -1.000000 0.000000
vn 0.000000 -1.000000 0.000000
vn 0.000000 -1.000000 0.000000
vn 0.000000 -1.000000 0.000000
vn 0.000000 0.000000 -1.000000
vn 0.000000 0.000000 -1.000000
vn 0.000000 0.000000 -1.000000
vn 0.000000 0.000000 -1.000000
vn 0.000000 1.000000 0.000000
vn 0.000000 1.000000 0.000000
vn 0.000000 1.000000 0.000000
vn 0.000000 1.000000 0.000000
vn 0.000000 0.000000 1.000000
vn 0.000000 0.000000 1.000000
vn 0.000000 0.000000 1.000000
vn 0.000000 0.000000 1.000000
vn 0.000000 -1.000000 0.000000
vn 0.000000 -1.000000 0.000000
vn 0.000000 -1.000000 0.000000
vn 0.000000 -1.000000 0.000000
vn 0.000000 0.000000 -1.000000
vn 0.000000 0.000000 -1.000000
vn 0.000000 0.000000 -1.000000
vn 0.000000 0.000000 -1.000000
vn 0.000000 1.000000 0.000000
vn 0.000000 1.000000 0.000000
vn 0.000000 1.000000 0.000000
vn 0.000000 1.000000 0.000000
vn 0.000000 0.000000 1.000000
vn 0.000000 0.000000 1.000000
vn 0.000000 0.000000 1.000000
vn 0.000000 0.000000 1.000000
vn 0.000000 -1.000000 0.000000
vn 0.000000 -1.000000 0.000000
vn 0.000000 -1.000000 0.000000
vn 0.000000 -1.000000 0.000000
vn 0.000000 -1.000000 0.000000
vn 0.000000 -1.000000 0.000000
vn 0.000000 -1.000000 0.000000
vn 0.000000 -1.000000 0.000000
vn 0.000000 0.000000 -1.000000
vn 0.000000 0.000000 -1.000000
vn 0.000000 0.000000 -1.000000
vn 0.000000 0.000000 -1.000000
vn 0.000000 1.000000 0.000000
vn 0.000000 1.000000 0.000000
vn 0.000000 1.000000 0.000000
vn 0.000000 1.000000 0.000000
vn 0.000000 0.000000 1.000000
vn 0.000000 0.000000 1.000000
vn 0.000000 0.000000 1.000000
vn 0.000000 0.000000 1.000000
s 1
g Kitchen_Shelf
usemtl initialShadingGroup
f 61/77/1 62/78/2 17/23/3 18/24/4
s 2
f 3/3/5 4/4/6 33/43/7 34/45/8
s 3
f 19/25/9 20/26/10 59/74/11 60/76/12
s 4
f 35/46/13 36/47/14 2/10/15 1/9/16
s 5
f 62/78/17 63/79/18 37/49/19 17/23/20
s 1
f 55/70/21 56/71/22 4/4/23 3/3/24
s 3
f 5/5/25 6/6/26 53/67/27 54/69/28
s 5
f 56/71/29 57/72/30 33/44/31 4/4/32
s 1
f 14/19/33 13/18/34 9/13/35 10/14/36
s 3
f 11/15/37 12/16/38 16/21/39 15/20/40
s 5
f 13/18/41 41/53/42 42/54/43 9/13/44
s 1
f 18/24/4 17/23/3 21/28/45 22/29/46
s 3
f 23/30/47 24/31/48 20/26/10 19/25/9
s 5
f 17/23/20 37/49/19 38/50/49 21/28/50
s 1
f 22/29/46 21/28/45 25/33/51 26/34/52
s 3
f 27/35/53 28/36/54 24/31/48 23/30/47
s 5
f 21/28/50 38/50/49 39/51/55 25/33/56
s 1
f 26/34/52 25/33/51 29/38/57 30/39/58
s 3
f 31/40/59 32/41/60 28/36/54 27/35/53
s 5
f 25/33/56 39/51/55 40/52/61 29/38/62
s 1
f 30/39/58 29/38/57 13/18/34 14/19/33
s 3
f 15/20/40 16/21/39 32/41/60 31/40/59
s 5
f 29/38/62 40/52/61 41/53/42 13/18/41
s 2
f 34/45/8 33/43/7 43/55/63 44/57/64
s 4
f 45/58/65 46/59/66 36/47/14 35/46/13
s off
f 66/81/67 65/82/68 67/83/69 68/84/70
s 5
f 38/50/49 37/49/19 47/61/71 48/62/72
s off
f 70/85/73 69/86/74 71/87/75 72/88/76
s 5
f 40/52/61 39/51/55 49/63/77 50/64/78
s off
f 74/89/79 73/90/80 75/91/81 76/92/82
s 5
f 42/54/43 41/53/42 51/65/83 52/66/84
f 33/44/31 57/72/30 58/73/85 43/56/86
s 2
f 44/57/64 43/55/63 6/6/87 5/5/88
s 4
f 7/7/89 8/8/90 46/59/66 45/58/65
s 5
f 47/61/71 64/80/91 59/75/92 20/27/93
f 48/62/72 47/61/71 20/27/93 24/32/94
f 49/63/77 48/62/72 24/32/94 28/37/95
f 50/64/78 49/63/77 28/37/95 32/42/96
f 51/65/83 50/64/78 32/42/96 16/22/97
f 52/66/84 51/65/83 16/22/97 12/17/98
f 43/56/86 58/73/85 53/68/99 6/12/100
s 3
f 54/69/28 53/67/27 12/16/38 11/15/37
s 1
f 10/14/36 9/13/35 56/71/22 55/70/21
s 5
f 9/13/44 42/54/43 57/72/30 56/71/29
s off
f 78/93/101 77/94/102 79/95/103 80/96/104
s 5
f 53/68/99 58/73/85 52/66/84 12/17/98
s 3
f 60/76/12 59/74/11 8/8/105 7/7/106
s 1
f 1/1/107 2/2/108 62/78/2 61/77/1
s 5
f 2/2/109 36/48/110 63/79/18 62/78/17
f 64/80/91 63/79/18 36/48/110 46/60/111
f 59/75/92 64/80/91 46/60/111 8/11/112
s off
f 37/49/113 63/79/114 65/82/115 66/81/116
f 63/79/117 64/80/118 67/83/119 65/82/120
f 64/80/121 47/61/122 68/84/123 67/83/124
f 47/61/125 37/49/126 66/81/127 68/84/128
f 39/51/129 38/50/130 69/86/131 70/85/132
f 38/50/133 48/62/134 71/87/135 69/86/136
f 48/62/137 49/63/138 72/88/139 71/87/140
f 49/63/141 39/51/142 70/85/143 72/88/144
f 41/53/145 40/52/146 73/90/147 74/89/148
f 40/52/149 50/64/150 75/91/151 73/90/152
f 50/64/153 51/65/154 76/92/155 75/91/156
f 51/65/157 41/53/158 74/89/159 76/92/160
f 58/73/161 57/72/162 77/94/163 78/93/164
f 57/72/165 42/54/166 79/95/167 77/94/168
f 42/54/169 52/66/170 80/96/171 79/95/172
f 52/66/173 58/73/174 78/93/175 80/96/176
