# Exported from ProBuilder
# http://www.procore3d.com/probuilder
# 4/19/2018 11:03:21 AM

mtllib ./Door.mtl
o Door

g Door
v -168.556 6.228 329.4784
v -168.356 6.228 329.476
v -168.556 9.127999 329.4784
v -168.356 9.127999 329.476
v -168.356 6.228 329.476
v -168.3413 6.228 330.7114
v -168.356 9.127999 329.476
v -168.3413 9.127999 330.7114
v -168.3413 6.228 330.7114
v -168.5413 6.228 330.7138
v -168.3413 9.127999 330.7114
v -168.5413 9.127999 330.7138
v -168.5413 6.228 330.7138
v -168.556 6.228 329.4784
v -168.5413 9.127999 330.7138
v -168.556 9.127999 329.4784
v -168.556 9.127999 329.4784
v -168.356 9.127999 329.476
v -168.5413 9.127999 330.7138
v -168.3413 9.127999 330.7114
v -168.5413 6.228 330.7138
v -168.3413 6.228 330.7114
v -168.556 6.228 329.4784
v -168.356 6.228 329.476

vn -0.01469866 4.54204E-08 -1.235391
vn -0.01469866 4.54204E-08 -1.235391
vn -0.01469866 4.54204E-08 -1.235391
vn -0.01469866 4.54204E-08 -1.235391
vn 0.9999297 6.271614E-09 -0.01189715
vn 0.9999297 6.271614E-09 -0.01189715
vn 0.9999297 6.271614E-09 -0.01189715
vn 0.9999297 6.271614E-09 -0.01189715
vn 0.01469866 -4.54204E-08 1.235391
vn 0.01469866 -4.54204E-08 1.235391
vn 0.01469866 -4.54204E-08 1.235391
vn 0.01469866 -4.54204E-08 1.235391
vn -0.9999297 -6.271614E-09 0.01189715
vn -0.9999297 -6.271614E-09 0.01189715
vn -0.9999297 -6.271614E-09 0.01189715
vn -0.9999297 -6.271614E-09 0.01189715
vn -5.833793E-09 0.9999999 3.683548E-08
vn -5.833793E-09 0.9999999 3.683548E-08
vn -5.833793E-09 0.9999999 3.683548E-08
vn -5.833793E-09 0.9999999 3.683548E-08
vn 5.833793E-09 -0.9999999 -3.683548E-08
vn 5.833793E-09 -0.9999999 -3.683548E-08
vn 5.833793E-09 -0.9999999 -3.683548E-08
vn 5.833793E-09 -0.9999999 -3.683548E-08

vt 0 0
vt -0.2 0
vt 0 2.9
vt -0.2 2.9
vt 0 0
vt -1 0
vt 0 2.9
vt -1 2.9
vt 0.2 0
vt 0 0
vt 0.2 2.9
vt 0 2.9
vt 1 0
vt 0 0
vt 1 2.9
vt 0 2.9
vt 0 0
vt 0.2 0
vt 0 -1
vt 0.2 -1
vt 0 -1
vt -0.2 -1
vt 0 0
vt -0.2 0

g Door
usemtl Default_Prototype
f 3/3/3 4/4/4 2/2/2 1/1/1
f 7/7/7 8/8/8 6/6/6 5/5/5
f 11/11/11 12/12/12 10/10/10 9/9/9
f 15/15/15 16/16/16 14/14/14 13/13/13
f 19/19/19 20/20/20 18/18/18 17/17/17
f 23/23/23 24/24/24 22/22/22 21/21/21

